<svg version="1.1" viewBox="0.0 0.0 714.0 371.0" fill="none" stroke="none" stroke-linecap="square" stroke-miterlimit="10" width="714" height="371" xmlns:xlink="http://www.w3.org/1999/xlink" xmlns="http://www.w3.org/2000/svg"><path fill="#ffffff" d="M0 0L714.0 0L714.0 371.0L0 371.0L0 0Z" fill-rule="nonzero"/><path stroke="#333333" stroke-width="1.0" stroke-linecap="butt" d="M101.5 283.5L695.5 283.5" fill-rule="nonzero"/><path fill="#eeeeee" d="M84.5 300.5L101.5 284.5L695.5 284.5L678.5 300.5Z" fill-rule="nonzero"/><path stroke="#cccccc" stroke-width="1.0" stroke-linecap="butt" d="M101.5 228.5L695.5 228.5" fill-rule="nonzero"/><path stroke="#cccccc" stroke-width="1.0" stroke-linecap="butt" d="M101.5 172.5L695.5 172.5" fill-rule="nonzero"/><path stroke="#cccccc" stroke-width="1.0" stroke-linecap="butt" d="M101.5 117.5L695.5 117.5" fill-rule="nonzero"/><path stroke="#cccccc" stroke-width="1.0" stroke-linecap="butt" d="M101.5 61.5L695.5 61.5" fill-rule="nonzero"/><clipPath id="id_0"><path d="M84.55 61.916668L695.45 61.916668L695.45 300.45L84.55 300.45L84.55 61.916668Z" clip-rule="nonzero"/></clipPath><path fill="#2b569f" clip-path="url(#id_0)" d="M164.0 282.0L164.0 283.0L152.0 295.0L152.0 294.0Z" fill-rule="nonzero"/><path fill="#689df6" clip-path="url(#id_0)" d="M152.0 294.0L104.0 294.0L116.0 282.0L164.0 282.0Z" fill-rule="nonzero"/><path stroke="#000000" stroke-width="2.0" stroke-linecap="butt" stroke-opacity="0.0" clip-path="url(#id_0)" d="M152.0 295.0L104.0 295.0L104.0 294.0L152.0 294.0Z" fill-rule="nonzero"/><path fill="#4285f4" clip-path="url(#id_0)" d="M152.0 295.0L104.0 295.0L104.0 294.0L152.0 294.0Z" fill-rule="nonzero"/><path fill="#2b569f" clip-path="url(#id_0)" d="M237.0 282.0L237.0 283.0L225.0 295.0L225.0 294.0Z" fill-rule="nonzero"/><path fill="#689df6" clip-path="url(#id_0)" d="M225.0 294.0L177.0 294.0L189.0 282.0L237.0 282.0Z" fill-rule="nonzero"/><path stroke="#000000" stroke-width="2.0" stroke-linecap="butt" stroke-opacity="0.0" clip-path="url(#id_0)" d="M225.0 295.0L177.0 295.0L177.0 294.0L225.0 294.0Z" fill-rule="nonzero"/><path fill="#4285f4" clip-path="url(#id_0)" d="M225.0 295.0L177.0 295.0L177.0 294.0L225.0 294.0Z" fill-rule="nonzero"/><path fill="#2b569f" clip-path="url(#id_0)" d="M310.0 280.0L310.0 283.0L298.0 295.0L298.0 292.0Z" fill-rule="nonzero"/><path fill="#689df6" clip-path="url(#id_0)" d="M298.0 292.0L250.0 292.0L262.0 280.0L310.0 280.0Z" fill-rule="nonzero"/><path stroke="#000000" stroke-width="2.0" stroke-linecap="butt" stroke-opacity="0.0" clip-path="url(#id_0)" d="M298.0 295.0L250.0 295.0L250.0 292.0L298.0 292.0Z" fill-rule="nonzero"/><path fill="#4285f4" clip-path="url(#id_0)" d="M298.0 295.0L250.0 295.0L250.0 292.0L298.0 292.0Z" fill-rule="nonzero"/><path fill="#2b569f" clip-path="url(#id_0)" d="M383.0 276.0L383.0 283.0L371.0 295.0L371.0 288.0Z" fill-rule="nonzero"/><path fill="#689df6" clip-path="url(#id_0)" d="M371.0 288.0L323.0 288.0L335.0 276.0L383.0 276.0Z" fill-rule="nonzero"/><path stroke="#000000" stroke-width="2.0" stroke-linecap="butt" stroke-opacity="0.0" clip-path="url(#id_0)" d="M371.0 295.0L323.0 295.0L323.0 288.0L371.0 288.0Z" fill-rule="nonzero"/><path fill="#4285f4" clip-path="url(#id_0)" d="M371.0 295.0L323.0 295.0L323.0 288.0L371.0 288.0Z" fill-rule="nonzero"/><path fill="#2b569f" clip-path="url(#id_0)" d="M457.0 267.0L457.0 283.0L445.0 295.0L445.0 279.0Z" fill-rule="nonzero"/><path fill="#689df6" clip-path="url(#id_0)" d="M445.0 279.0L397.0 279.0L409.0 267.0L457.0 267.0Z" fill-rule="nonzero"/><path stroke="#000000" stroke-width="2.0" stroke-linecap="butt" stroke-opacity="0.0" clip-path="url(#id_0)" d="M445.0 295.0L397.0 295.0L397.0 279.0L445.0 279.0Z" fill-rule="nonzero"/><path fill="#4285f4" clip-path="url(#id_0)" d="M445.0 295.0L397.0 295.0L397.0 279.0L445.0 279.0Z" fill-rule="nonzero"/><path fill="#2b569f" clip-path="url(#id_0)" d="M530.0 234.0L530.0 283.0L518.0 295.0L518.0 246.0Z" fill-rule="nonzero"/><path fill="#689df6" clip-path="url(#id_0)" d="M518.0 246.0L470.0 246.0L482.0 234.0L530.0 234.0Z" fill-rule="nonzero"/><path stroke="#000000" stroke-width="2.0" stroke-linecap="butt" stroke-opacity="0.0" clip-path="url(#id_0)" d="M518.0 295.0L470.0 295.0L470.0 246.0L518.0 246.0Z" fill-rule="nonzero"/><path fill="#4285f4" clip-path="url(#id_0)" d="M518.0 295.0L470.0 295.0L470.0 246.0L518.0 246.0Z" fill-rule="nonzero"/><path fill="#2b569f" clip-path="url(#id_0)" d="M603.0 180.0L603.0 283.0L591.0 295.0L591.0 192.0Z" fill-rule="nonzero"/><path fill="#689df6" clip-path="url(#id_0)" d="M591.0 192.0L543.0 192.0L555.0 180.0L603.0 180.0Z" fill-rule="nonzero"/><path stroke="#000000" stroke-width="2.0" stroke-linecap="butt" stroke-opacity="0.0" clip-path="url(#id_0)" d="M591.0 295.0L543.0 295.0L543.0 192.0L591.0 192.0Z" fill-rule="nonzero"/><path fill="#4285f4" clip-path="url(#id_0)" d="M591.0 295.0L543.0 295.0L543.0 192.0L591.0 192.0Z" fill-rule="nonzero"/><path fill="#2b569f" clip-path="url(#id_0)" d="M676.0 69.0L676.0 283.0L664.0 295.0L664.0 81.0Z" fill-rule="nonzero"/><path fill="#689df6" clip-path="url(#id_0)" d="M664.0 81.0L616.0 81.0L628.0 69.0L676.0 69.0Z" fill-rule="nonzero"/><path stroke="#000000" stroke-width="2.0" stroke-linecap="butt" stroke-opacity="0.0" clip-path="url(#id_0)" d="M664.0 295.0L616.0 295.0L616.0 81.0L664.0 81.0Z" fill-rule="nonzero"/><path fill="#4285f4" clip-path="url(#id_0)" d="M664.0 295.0L616.0 295.0L616.0 81.0L664.0 81.0Z" fill-rule="nonzero"/><path stroke="#ea4335" stroke-width="4.0" stroke-linecap="butt" stroke-opacity="0.8" clip-path="url(#id_0)" d="M0 283.2465C0 283.2465 2.6666667 283.2405 4.0 283.2374C5.3333335 283.2343 6.6666665 283.23117 8.0 283.22794C9.333333 283.2247 10.666667 283.2214 12.0 283.21802C13.333333 283.21466 14.666667 283.2112 16.0 283.20767C17.333334 283.20416 18.666666 283.20056 20.0 283.19687C21.333334 283.19318 22.666666 283.18942 24.0 283.18558C25.333334 283.18173 26.666666 283.17783 28.0 283.1738C29.333334 283.16977 30.666666 283.16568 32.0 283.16147C33.333332 283.1573 34.666668 283.15298 36.0 283.14862C37.333332 283.14423 38.666668 283.13974 40.0 283.13516C41.333332 283.13058 42.666668 283.12592 44.0 283.12112C45.333332 283.11633 46.666668 283.11145 48.0 283.10648C49.333332 283.10147 50.666668 283.09637 52.0 283.09116C53.333332 283.08594 54.666668 283.0806 56.0 283.07513C57.333332 283.0697 58.666668 283.06412 60.0 283.0584C61.333332 283.05273 62.666668 283.0469 64.0 283.04095C65.333336 283.035 66.666664 283.02893 68.0 283.02274C69.333336 283.0165 70.666664 283.01016 72.0 283.00366C73.333336 282.99716 74.666664 282.99054 76.0 282.98376C77.333336 282.977 78.666664 282.97006 80.0 282.96298C81.333336 282.9559 82.666664 282.94867 84.0 282.94125C85.333336 282.93387 86.666664 282.9263 88.0 282.91858C89.333336 282.91083 90.666664 282.90295 92.0 282.89487C93.333336 282.88678 94.666664 282.87854 96.0 282.87012C97.333336 282.86166 98.666664 282.85306 100.0 282.84424C101.333336 282.83545 102.666664 282.82645 104.0 282.81723C105.333336 282.80804 106.666664 282.79865 108.0 282.78903C109.333336 282.77942 110.666664 282.7696 112.0 282.75955C113.333336 282.7495 114.666664 282.73926 116.0 282.72876C117.333336 282.71826 118.666664 282.70755 120.0 282.6966C121.333336 282.68564 122.666664 282.67444 124.0 282.663C125.333336 282.65155 126.666664 282.63986 128.0 282.6279C129.33333 282.61594 130.66667 282.60373 132.0 282.59125C133.33333 282.57874 134.66667 282.56598 136.0 282.55295C137.33333 282.5399 138.66667 282.52658 140.0 282.51294C141.33333 282.4993 142.66667 282.48538 144.0 282.47116C145.33333 282.4569 146.66667 282.44238 148.0 282.4275C149.33333 282.41263 150.66667 282.39743 152.0 282.3819C153.33333 282.36636 154.66667 282.3505 156.0 282.33426C157.33333 282.31805 158.66667 282.30148 160.0 282.28452C161.33333 282.26758 162.66667 282.25024 164.0 282.23254C165.33333 282.21484 166.66667 282.19675 168.0 282.17825C169.33333 282.15976 170.66667 282.14087 172.0 282.12155C173.33333 282.1022 174.66667 282.0825 176.0 282.0623C177.33333 282.0421 178.66667 282.0215 180.0 282.00043C181.33333 281.97934 182.66667 281.9578 184.0 281.93576C185.33333 281.91376 186.66667 281.89127 188.0 281.86826C189.33333 281.84525 190.66667 281.82175 192.0 281.7977C193.33333 281.77368 194.66667 281.74915 196.0 281.72403C197.33333 281.6989 198.66667 281.67328 200.0 281.64706C201.33333 281.62082 202.66667 281.59406 204.0 281.56665C205.33333 281.53928 206.66667 281.5113 208.0 281.48267C209.33333 281.45404 210.66667 281.42484 212.0 281.39493C213.33333 281.36505 214.66667 281.33453 216.0 281.30328C217.33333 281.27206 218.66667 281.2402 220.0 281.20758C221.33333 281.17496 222.66667 281.14163 224.0 281.10757C225.33333 281.0735 226.66667 281.0387 228.0 281.0031C229.33333 280.9675 230.66667 280.93118 232.0 280.89398C233.33333 280.8568 234.66667 280.81885 236.0 280.78C237.33333 280.74118 238.66667 280.7015 240.0 280.66095C241.33333 280.62036 242.66667 280.57895 244.0 280.53656C245.33333 280.49417 246.66667 280.45093 248.0 280.40665C249.33333 280.36237 250.66667 280.31717 252.0 280.27094C253.33333 280.22467 254.66667 280.17746 256.0 280.12915C257.33334 280.08084 258.66666 280.03152 260.0 279.98108C261.33334 279.9306 262.66666 279.8791 264.0 279.8264C265.33334 279.77365 266.66666 279.71985 268.0 279.6648C269.33334 279.6097 270.66666 279.5535 272.0 279.49597C273.33334 279.43848 274.66666 279.37973 276.0 279.31967C277.33334 279.25958 278.66666 279.19824 280.0 279.13547C281.33334 279.0727 282.66666 279.00864 284.0 278.94305C285.33334 278.8775 286.66666 278.81058 288.0 278.7421C289.33334 278.67358 290.66666 278.60367 292.0 278.53214C293.33334 278.4606 294.66666 278.38757 296.0 278.31284C297.33334 278.2381 298.66666 278.1618 300.0 278.08374C301.33334 278.00568 302.66666 277.926 304.0 277.84445C305.33334 277.76288 306.66666 277.67966 308.0 277.59445C309.33334 277.50928 310.66666 277.42233 312.0 277.33334C313.33334 277.24435 314.66666 277.15353 316.0 277.06058C317.33334 276.96762 318.66666 276.87274 320.0 276.77563C321.33334 276.67856 322.66666 276.57944 324.0 276.478C325.33334 276.3766 326.66666 276.27304 328.0 276.16708C329.33334 276.06116 330.66666 275.953 332.0 275.84232C333.33334 275.73166 334.66666 275.61865 336.0 275.50305C337.33334 275.38745 338.66666 275.26944 340.0 275.14868C341.33334 275.0279 342.66666 274.90463 344.0 274.77847C345.33334 274.65234 346.66666 274.52356 348.0 274.39178C349.33334 274.26 350.66666 274.1255 352.0 273.98782C353.33334 273.8502 354.66666 273.70966 356.0 273.5659C357.33334 273.4221 358.66666 273.2753 360.0 273.1251C361.33334 272.9749 362.66666 272.82156 364.0 272.66467C365.33334 272.50778 366.66666 272.3476 368.0 272.18372C369.33334 272.0198 370.66666 271.8525 372.0 271.6813C373.33334 271.5101 374.66666 271.33533 376.0 271.1565C377.33334 270.97763 378.66666 270.79507 380.0 270.60828C381.33334 270.42145 382.66666 270.23074 384.0 270.03558C385.33334 269.84045 386.66666 269.64124 388.0 269.4374C389.33334 269.23355 390.66666 269.02545 392.0 268.8125C393.33334 268.59958 394.66666 268.3822 396.0 268.15976C397.33334 267.93732 398.66666 267.71027 400.0 267.4779C401.33334 267.24554 402.66666 267.00836 404.0 266.76566C405.33334 266.52292 406.66666 266.27515 408.0 266.02164C409.33334 265.7681 410.66666 265.50928 412.0 265.24442C413.33334 264.97958 414.66666 264.7092 416.0 264.43256C417.33334 264.1559 418.66666 263.87347 420.0 263.58447C421.33334 263.2955 422.66666 263.0005 424.0 262.6986C425.33334 262.39673 426.66666 262.08856 428.0 261.7732C429.33334 261.45786 430.66666 261.13596 432.0 260.80655C433.33334 260.47714 434.66666 260.14087 436.0 259.79678C437.33334 259.4527 438.66666 259.1014 440.0 258.74197C441.33334 258.38254 442.66666 258.01562 444.0 257.64017C445.33334 257.26468 446.66666 256.8814 448.0 256.4892C449.33334 256.097 450.66666 255.6966 452.0 255.28688C453.33334 254.87718 454.66666 254.45895 456.0 254.03098C457.33334 253.60301 458.66666 253.16612 460.0 252.71906C461.33334 252.272 462.66666 251.81563 464.0 251.34863C465.33334 250.88164 466.66666 250.40492 468.0 249.9171C469.33334 249.42929 470.66666 248.9313 472.0 248.42174C473.33334 247.91216 474.66666 247.39197 476.0 246.85968C477.33334 246.32738 478.66666 245.784 480.0 245.22795C481.33334 244.67192 482.66666 244.10431 484.0 243.52347C485.33334 242.94264 486.66666 242.34972 488.0 241.74298C489.33334 241.13626 490.66666 240.51688 492.0 239.88309C493.33334 239.24931 494.66666 238.60231 496.0 237.94026C497.33334 237.27821 498.66666 236.60237 500.0 235.9108C501.33334 235.21922 502.66666 234.51323 504.0 233.79082C505.33334 233.0684 506.66666 232.33093 508.0 231.57631C509.33334 230.82169 510.66666 230.05133 512.0 229.26305C513.3333 228.47476 514.6667 227.67006 516.0 226.84662C517.3333 226.02318 518.6667 225.18259 520.0 224.32243C521.3333 223.46228 522.6667 222.5842 524.0 221.68568C525.3333 220.78717 526.6667 219.86995 528.0 218.93137C529.3333 217.99278 530.6667 217.03464 532.0 216.0542C533.3333 215.07376 534.6667 214.0729 536.0 213.04874C537.3333 212.02458 538.6667 210.97908 540.0 209.90926C541.3333 208.83943 542.6667 207.7473 544.0 206.62976C545.3333 205.51222 546.6667 204.3714 548.0 203.20403C549.3333 202.03665 550.6667 200.84496 552.0 199.62552C553.3333 198.4061 554.6667 197.16125 556.0 195.88744C557.3333 194.61363 558.6667 193.31328 560.0 191.98265C561.3333 190.65204 562.6667 189.2937 564.0 187.90375C565.3333 186.5138 566.6667 185.09488 568.0 183.64293C569.3333 182.191 570.6667 180.7088 572.0 179.19212C573.3333 177.67543 574.6667 176.12715 576.0 174.54283C577.3333 172.95851 578.6667 171.34117 580.0 169.6862C581.3333 168.03122 582.6667 166.34177 584.0 164.61299C585.3333 162.88422 586.6667 161.11942 588.0 159.31355C589.3333 157.50769 590.6667 155.66418 592.0 153.77779C593.3333 151.89139 594.6667 149.96568 596.0 147.99516C597.3333 146.02464 598.6667 144.01305 600.0 141.95467C601.3333 139.89627 602.6667 137.79498 604.0 135.64479C605.3333 133.4946 606.6667 131.2996 608.0 129.05353C609.3333 126.80746 610.6667 124.51458 612.0 122.16835C613.3333 119.82211 614.6667 117.42699 616.0 114.97612C617.3333 112.52526 618.6667 110.02332 620.0 107.463165C621.3333 104.90301 622.6667 102.2895 624.0 99.61517C625.3333 96.94085 626.6667 94.21079 628.0 91.417206C629.3333 88.62362 630.6667 85.77182 632.0 82.85366C633.3333 79.93549 634.6667 76.95653 636.0 73.908226C637.3333 70.85993 638.6667 67.748116 640.0 64.56388C641.3333 61.37965 642.6667 58.129063 644.0 54.80283C645.3333 51.4766 646.6667 48.081055 648.0 44.606495C649.3333 41.131935 650.6667 37.58497 652.0 33.95546C653.3333 30.325954 654.6667 26.620815 656.0 22.829453C657.3333 19.038092 658.6667 15.167725 660.0 11.20729C661.3333 7.2468553 662.6667 3.2038922 664.0 -0.9331547C665.3333 -5.070202 666.6667 -9.293457 668.0 -13.614992C669.3333 -17.936527 670.6667 -22.348116 672.0 -26.862366C673.3333 -31.376617 674.6667 -35.984936 676.0 -40.700497C677.3333 -45.416058 678.6667 -50.22988 680.0 -55.155727C681.3333 -60.081573 682.6667 -65.11007 684.0 -70.25558C685.3333 -75.401085 686.6667 -80.653824 688.0 -86.02879C689.3333 -91.40376 692.0 -102.5054 692.0 -102.5054" fill-rule="nonzero"/><path fill="#000000" d="M380.84375 349.45L380.84375 345.8094L377.53125 340.85626L378.92188 340.85626L380.60938 343.45Q381.07812 344.16876 381.48438 344.90314Q381.875 344.23126 382.42188 343.3875L384.09375 340.85626L385.40625 340.85626L381.98438 345.8094L381.98438 349.45L380.84375 349.45ZM389.54688 347.45L390.64062 347.575Q390.39062 348.52814 389.6875 349.0594Q388.98438 349.59064 387.90625 349.59064Q386.54688 349.59064 385.73438 348.7469Q384.9375 347.90314 384.9375 346.3875Q384.9375 344.825 385.75 343.96564Q386.5625 343.09064 387.84375 343.09064Q389.09375 343.09064 389.875 343.9344Q390.67188 344.77814 390.67188 346.325Q390.67188 346.41876 390.67188 346.60626L386.03125 346.60626Q386.09375 347.6375 386.60938 348.1844Q387.125 348.71564 387.90625 348.71564Q388.48438 348.71564 388.89062 348.41876Q389.3125 348.10626 389.54688 347.45ZM386.09375 345.7469L389.5625 345.7469Q389.5 344.95 389.17188 344.5594Q388.65625 343.95 387.85938 343.95Q387.125 343.95 386.625 344.4344Q386.14062 344.91876 386.09375 345.7469ZM396.35938 348.6844Q395.76562 349.1844 395.21875 349.3875Q394.6875 349.59064 394.0625 349.59064Q393.03125 349.59064 392.48438 349.09064Q391.9375 348.59064 391.9375 347.8094Q391.9375 347.35626 392.14062 346.98126Q392.34375 346.59064 392.6875 346.3719Q393.03125 346.1375 393.45312 346.02814Q393.75 345.9344 394.39062 345.85626Q395.65625 345.71564 396.26562 345.4969Q396.26562 345.27814 396.26562 345.23126Q396.26562 344.575 395.96875 344.3094Q395.5625 343.96564 394.76562 343.96564Q394.03125 343.96564 393.67188 344.23126Q393.3125 344.48126 393.14062 345.1375L392.10938 344.9969Q392.25 344.34064 392.57812 343.9344Q392.90625 343.52814 393.51562 343.3094Q394.125 343.09064 394.92188 343.09064Q395.71875 343.09064 396.21875 343.27814Q396.71875 343.46564 396.95312 343.7469Q397.1875 344.02814 397.28125 344.46564Q397.32812 344.73126 397.32812 345.4344L397.32812 346.84064Q397.32812 348.3094 397.39062 348.7Q397.46875 349.09064 397.67188 349.45L396.5625 349.45Q396.40625 349.1219 396.35938 348.6844ZM396.26562 346.325Q395.6875 346.5594 394.54688 346.73126Q393.89062 346.825 393.625 346.95Q393.35938 347.0594 393.20312 347.27814Q393.0625 347.4969 393.0625 347.77814Q393.0625 348.2 393.375 348.48126Q393.70312 348.7625 394.3125 348.7625Q394.92188 348.7625 395.39062 348.4969Q395.875 348.23126 396.09375 347.7625Q396.26562 347.40314 396.26562 346.71564L396.26562 346.325ZM399.28125 349.45L399.28125 343.23126L400.23438 343.23126L400.23438 344.16876Q400.59375 343.5125 400.89062 343.3094Q401.20312 343.09064 401.57812 343.09064Q402.10938 343.09064 402.65625 343.41876L402.29688 344.40314Q401.90625 344.16876 401.53125 344.16876Q401.17188 344.16876 400.89062 344.3875Q400.625 344.59064 400.51562 344.96564Q400.32812 345.52814 400.32812 346.1844L400.32812 349.45L399.28125 349.45Z" fill-rule="nonzero"/><path fill="#000000" d="M29.550013 224.79271L20.956263 224.79271L20.956263 223.07396L27.034388 221.04271Q27.893763 220.76146 28.315638 220.63646Q27.846888 220.49583 26.940638 220.18333L20.956263 218.12083L20.956263 216.58958L29.550013 216.58958L29.550013 217.68333L22.362513 217.68333L29.550013 220.18333L29.550013 221.21458L22.237513 223.69896L29.550013 223.69896L29.550013 224.79271ZM22.175013 215.88646L20.956263 215.88646L20.956263 214.82396L22.175013 214.82396L22.175013 215.88646ZM29.550013 215.88646L23.331263 215.88646L23.331263 214.82396L29.550013 214.82396L29.550013 215.88646ZM29.550013 212.91771L20.956263 212.91771L20.956263 211.85521L29.550013 211.85521L29.550013 212.91771ZM29.550013 209.91771L20.956263 209.91771L20.956263 208.85521L29.550013 208.85521L29.550013 209.91771ZM22.175013 206.88646L20.956263 206.88646L20.956263 205.82396L22.175013 205.82396L22.175013 206.88646ZM29.550013 206.88646L23.331263 206.88646L23.331263 205.82396L29.550013 205.82396L29.550013 206.88646ZM26.440638 204.27708Q24.706263 204.27708 23.878138 203.32396Q23.190638 202.52708 23.190638 201.37083Q23.190638 200.08958 24.034388 199.27708Q24.862513 198.44896 26.346888 198.44896Q27.550013 198.44896 28.237513 198.80833Q28.925013 199.16771 29.315638 199.87083Q29.690638 200.55833 29.690638 201.37083Q29.690638 202.66771 28.862513 203.48021Q28.018763 204.27708 26.440638 204.27708ZM26.440638 203.19896Q27.628138 203.19896 28.221888 202.68333Q28.815638 202.15208 28.815638 201.37083Q28.815638 200.57396 28.221888 200.05833Q27.628138 199.54271 26.409388 199.54271Q25.253138 199.54271 24.659388 200.07396Q24.065638 200.58958 24.065638 201.37083Q24.065638 202.15208 24.659388 202.68333Q25.237513 203.19896 26.440638 203.19896ZM29.550013 196.88646L23.331263 196.88646L23.331263 195.94896L24.206263 195.94896Q23.190638 195.26146 23.190638 193.96458Q23.190638 193.40208 23.393763 192.93333Q23.596888 192.44896 23.925013 192.21458Q24.253138 191.98021 24.690638 191.88646Q24.987513 191.83958 25.721888 191.83958L29.550013 191.83958L29.550013 192.88646L25.768763 192.88646Q25.112513 192.88646 24.800013 193.01146Q24.487513 193.13646 24.300013 193.44896Q24.096888 193.76146 24.096888 194.18333Q24.096888 194.85521 24.534388 195.35521Q24.956263 195.83958 26.143763 195.83958L29.550013 195.83958L29.550013 196.88646ZM25.362513 187.10521Q23.221888 187.10521 22.018763 185.96458Q20.800013 184.80833 20.800013 182.99583Q20.800013 181.79271 21.378138 180.83958Q21.940638 179.88646 22.956263 179.38646Q23.971888 178.88646 25.268763 178.88646Q26.565638 178.88646 27.596888 179.41771Q28.628138 179.94896 29.159388 180.91771Q29.690638 181.87083 29.690638 182.99583Q29.690638 184.21458 29.112513 185.16771Q28.518763 186.12083 27.518763 186.62083Q26.503138 187.10521 25.362513 187.10521ZM25.378138 185.93333Q26.940638 185.93333 27.831263 185.10521Q28.721888 184.26146 28.721888 182.99583Q28.721888 181.71458 27.831263 180.88646Q26.925013 180.05833 25.253138 180.05833Q24.206263 180.05833 23.425013 180.41771Q22.643763 180.76146 22.221888 181.44896Q21.784388 182.13646 21.784388 182.98021Q21.784388 184.18333 22.612513 185.05833Q23.440638 185.93333 25.378138 185.93333ZM29.550013 177.90208L23.331263 177.90208L23.331263 176.94896L24.268763 176.94896Q23.612513 176.58958 23.409388 176.29271Q23.190638 175.98021 23.190638 175.60521Q23.190638 175.07396 23.518763 174.52708L24.503138 174.88646Q24.268763 175.27708 24.268763 175.65208Q24.268763 176.01146 24.487513 176.29271Q24.690638 176.55833 25.065638 176.66771Q25.628138 176.85521 26.284388 176.85521L29.550013 176.85521L29.550013 177.90208ZM29.550013 169.85521L28.768763 169.85521Q29.690638 170.44896 29.690638 171.58958Q29.690638 172.33958 29.284388 172.96458Q28.862513 173.58958 28.128138 173.93333Q27.393763 174.27708 26.440638 174.27708Q25.518763 174.27708 24.753138 173.96458Q23.987513 173.65208 23.596888 173.02708Q23.190638 172.40208 23.190638 171.63646Q23.190638 171.07396 23.425013 170.63646Q23.659388 170.19896 24.034388 169.91771L20.956263 169.91771L20.956263 168.87083L29.550013 168.87083L29.550013 169.85521ZM26.440638 173.18333Q27.643763 173.18333 28.237513 172.68333Q28.815638 172.18333 28.815638 171.49583Q28.815638 170.80833 28.253138 170.32396Q27.690638 169.83958 26.534388 169.83958Q25.253138 169.83958 24.659388 170.33958Q24.065638 170.82396 24.065638 171.54271Q24.065638 172.24583 24.643763 172.71458Q25.206263 173.18333 26.440638 173.18333ZM27.550013 162.63646L27.675013 161.54271Q28.628138 161.79271 29.159388 162.49583Q29.690638 163.19896 29.690638 164.27708Q29.690638 165.63646 28.846888 166.44896Q28.003138 167.24583 26.487513 167.24583Q24.925013 167.24583 24.065638 166.43333Q23.190638 165.62083 23.190638 164.33958Q23.190638 163.08958 24.034388 162.30833Q24.878138 161.51146 26.425013 161.51146Q26.518763 161.51146 26.706263 161.51146L26.706263 166.15208Q27.737513 166.08958 28.284388 165.57396Q28.815638 165.05833 28.815638 164.27708Q28.815638 163.69896 28.518763 163.29271Q28.206263 162.87083 27.550013 162.63646ZM25.846888 166.08958L25.846888 162.62083Q25.050013 162.68333 24.659388 163.01146Q24.050013 163.52708 24.050013 164.32396Q24.050013 165.05833 24.534388 165.55833Q25.018763 166.04271 25.846888 166.08958ZM29.550013 159.90208L23.331263 159.90208L23.331263 158.94896L24.268763 158.94896Q23.612513 158.58958 23.409388 158.29271Q23.190638 157.98021 23.190638 157.60521Q23.190638 157.07396 23.518763 156.52708L24.503138 156.88646Q24.268763 157.27708 24.268763 157.65208Q24.268763 158.01146 24.487513 158.29271Q24.690638 158.55833 25.065638 158.66771Q25.628138 158.85521 26.284388 158.85521L29.550013 158.85521L29.550013 159.90208ZM27.690638 156.30833L27.534388 155.27708Q28.159388 155.18333 28.487513 154.79271Q28.815638 154.38646 28.815638 153.65208Q28.815638 152.93333 28.534388 152.58958Q28.237513 152.23021 27.831263 152.23021Q27.471888 152.23021 27.268763 152.54271Q27.128138 152.76146 26.909388 153.62083Q26.612513 154.77708 26.409388 155.23021Q26.190638 155.66771 25.815638 155.90208Q25.440638 156.13646 24.971888 156.13646Q24.565638 156.13646 24.206263 155.94896Q23.846888 155.76146 23.612513 155.43333Q23.440638 155.18333 23.315638 154.76146Q23.190638 154.33958 23.190638 153.83958Q23.190638 153.12083 23.409388 152.57396Q23.612513 152.01146 23.971888 151.74583Q24.331263 151.48021 24.925013 151.38646L25.065638 152.41771Q24.596888 152.48021 24.331263 152.82396Q24.050013 153.15208 24.050013 153.77708Q24.050013 154.49583 24.300013 154.80833Q24.534388 155.12083 24.862513 155.12083Q25.065638 155.12083 25.221888 154.99583Q25.393763 154.85521 25.503138 154.58958Q25.565638 154.43333 25.768763 153.65208Q26.081263 152.52708 26.268763 152.08958Q26.456263 151.65208 26.815638 151.40208Q27.175013 151.15208 27.721888 151.15208Q28.253138 151.15208 28.721888 151.46458Q29.175013 151.76146 29.440638 152.33958Q29.690638 152.91771 29.690638 153.65208Q29.690638 154.87083 29.190638 155.51146Q28.675013 156.13646 27.690638 156.30833Z" fill-rule="nonzero"/><path fill="#000000" d="M72.05 283.21564Q72.05 281.6844 72.3625 280.7625Q72.675 279.825 73.28438 279.325Q73.90938 278.825 74.84688 278.825Q75.53438 278.825 76.05 279.10626Q76.58125 279.3875 76.925 279.91876Q77.26875 280.4344 77.45625 281.1844Q77.64375 281.9344 77.64375 283.21564Q77.64375 284.73126 77.33125 285.65314Q77.03438 286.575 76.40938 287.09064Q75.8 287.59064 74.84688 287.59064Q73.6125 287.59064 72.89375 286.7Q72.05 285.6375 72.05 283.21564ZM73.12813 283.21564Q73.12813 285.325 73.62813 286.02814Q74.12813 286.73126 74.84688 286.73126Q75.58125 286.73126 76.06563 286.02814Q76.56563 285.325 76.56563 283.21564Q76.56563 281.09064 76.06563 280.40314Q75.58125 279.7 74.83125 279.7Q74.1125 279.7 73.675 280.3094Q73.12813 281.09064 73.12813 283.21564Z" fill-rule="nonzero"/><path fill="#000000" d="M63.596874 231.05104L63.596874 232.06667L57.909374 232.06667Q57.909374 231.69167 58.034374 231.33229Q58.253124 230.75417 58.721874 230.19167Q59.20625 229.62917 60.1125 228.89479Q61.51875 227.73854 62.003124 227.06667Q62.503124 226.39479 62.503124 225.80104Q62.503124 225.17604 62.05 224.75417Q61.596874 224.31667 60.878124 224.31667Q60.1125 224.31667 59.659374 224.76979Q59.20625 225.22292 59.190624 226.03542L58.1125 225.92604Q58.221874 224.70729 58.940624 224.08229Q59.675 223.44167 60.909374 223.44167Q62.14375 223.44167 62.8625 224.12917Q63.58125 224.81667 63.58125 225.83229Q63.58125 226.34792 63.3625 226.84792Q63.159374 227.33229 62.659374 227.89479Q62.175 228.44167 61.05 229.39479Q60.096874 230.19167 59.815624 230.48854Q59.55 230.76979 59.378124 231.05104L63.596874 231.05104ZM65.05 229.81667L66.15938 229.72292Q66.28438 230.53542 66.72188 230.94167Q67.175 231.34792 67.81563 231.34792Q68.56563 231.34792 69.09688 230.76979Q69.62813 230.19167 69.62813 229.25417Q69.62813 228.34792 69.1125 227.83229Q68.6125 227.30104 67.78438 227.30104Q67.28438 227.30104 66.8625 227.53542Q66.45625 227.76979 66.22188 228.12917L65.2375 228.00417L66.06563 223.59792L70.34688 223.59792L70.34688 224.59792L66.90938 224.59792L66.45625 226.91042Q67.22188 226.36354 68.06563 226.36354Q69.19063 226.36354 69.95625 227.14479Q70.7375 227.92604 70.7375 229.16042Q70.7375 230.31667 70.06563 231.17604Q69.2375 232.20729 67.81563 232.20729Q66.64375 232.20729 65.89375 231.55104Q65.15938 230.89479 65.05 229.81667ZM72.05 227.83229Q72.05 226.30104 72.3625 225.37917Q72.675 224.44167 73.28438 223.94167Q73.90938 223.44167 74.84688 223.44167Q75.53438 223.44167 76.05 223.72292Q76.58125 224.00417 76.925 224.53542Q77.26875 225.05104 77.45625 225.80104Q77.64375 226.55104 77.64375 227.83229Q77.64375 229.34792 77.33125 230.26979Q77.03438 231.19167 76.40938 231.70729Q75.8 232.20729 74.84688 232.20729Q73.6125 232.20729 72.89375 231.31667Q72.05 230.25417 72.05 227.83229ZM73.12813 227.83229Q73.12813 229.94167 73.62813 230.64479Q74.12813 231.34792 74.84688 231.34792Q75.58125 231.34792 76.06563 230.64479Q76.56563 229.94167 76.56563 227.83229Q76.56563 225.70729 76.06563 225.01979Q75.58125 224.31667 74.83125 224.31667Q74.1125 224.31667 73.675 224.92604Q73.12813 225.70729 73.12813 227.83229Z" fill-rule="nonzero"/><path fill="#000000" d="M58.05 174.43333L59.159374 174.33958Q59.284374 175.15208 59.721874 175.55833Q60.175 175.96458 60.815624 175.96458Q61.565624 175.96458 62.096874 175.38646Q62.628124 174.80833 62.628124 173.87083Q62.628124 172.96458 62.1125 172.44896Q61.6125 171.91771 60.784374 171.91771Q60.284374 171.91771 59.8625 172.15208Q59.45625 172.38646 59.221874 172.74583L58.2375 172.62083L59.065624 168.21458L63.346874 168.21458L63.346874 169.21458L59.909374 169.21458L59.45625 171.52708Q60.221874 170.98021 61.065624 170.98021Q62.190624 170.98021 62.95625 171.76146Q63.7375 172.54271 63.7375 173.77708Q63.7375 174.93333 63.065624 175.79271Q62.2375 176.82396 60.815624 176.82396Q59.64375 176.82396 58.89375 176.16771Q58.159374 175.51146 58.05 174.43333ZM65.05 172.44896Q65.05 170.91771 65.3625 169.99583Q65.675 169.05833 66.28438 168.55833Q66.90938 168.05833 67.84688 168.05833Q68.53438 168.05833 69.05 168.33958Q69.58125 168.62083 69.925 169.15208Q70.26875 169.66771 70.45625 170.41771Q70.64375 171.16771 70.64375 172.44896Q70.64375 173.96458 70.33125 174.88646Q70.03438 175.80833 69.40938 176.32396Q68.8 176.82396 67.84688 176.82396Q66.6125 176.82396 65.89375 175.93333Q65.05 174.87083 65.05 172.44896ZM66.12813 172.44896Q66.12813 174.55833 66.62813 175.26146Q67.12813 175.96458 67.84688 175.96458Q68.58125 175.96458 69.06563 175.26146Q69.56563 174.55833 69.56563 172.44896Q69.56563 170.32396 69.06563 169.63646Q68.58125 168.93333 67.83125 168.93333Q67.1125 168.93333 66.675 169.54271Q66.12813 170.32396 66.12813 172.44896ZM72.05 172.44896Q72.05 170.91771 72.3625 169.99583Q72.675 169.05833 73.28438 168.55833Q73.90938 168.05833 74.84688 168.05833Q75.53438 168.05833 76.05 168.33958Q76.58125 168.62083 76.925 169.15208Q77.26875 169.66771 77.45625 170.41771Q77.64375 171.16771 77.64375 172.44896Q77.64375 173.96458 77.33125 174.88646Q77.03438 175.80833 76.40938 176.32396Q75.8 176.82396 74.84688 176.82396Q73.6125 176.82396 72.89375 175.93333Q72.05 174.87083 72.05 172.44896ZM73.12813 172.44896Q73.12813 174.55833 73.62813 175.26146Q74.12813 175.96458 74.84688 175.96458Q75.58125 175.96458 76.06563 175.26146Q76.56563 174.55833 76.56563 172.44896Q76.56563 170.32396 76.06563 169.63646Q75.58125 168.93333 74.83125 168.93333Q74.1125 168.93333 73.675 169.54271Q73.12813 170.32396 73.12813 172.44896Z" fill-rule="nonzero"/><path fill="#000000" d="M58.1125 113.83125L58.1125 112.81563L63.675 112.81563L63.675 113.64375Q62.8625 114.51875 62.05 115.97188Q61.253124 117.40938 60.815624 118.94063Q60.4875 120.01875 60.409374 121.3L59.315624 121.3Q59.33125 120.28438 59.70625 118.84688Q60.096874 117.40938 60.8 116.08125Q61.51875 114.75313 62.33125 113.83125L58.1125 113.83125ZM65.05 119.05L66.15938 118.95625Q66.28438 119.76875 66.72188 120.175Q67.175 120.58125 67.81563 120.58125Q68.56563 120.58125 69.09688 120.00313Q69.62813 119.425 69.62813 118.4875Q69.62813 117.58125 69.1125 117.06563Q68.6125 116.53438 67.78438 116.53438Q67.28438 116.53438 66.8625 116.76875Q66.45625 117.00313 66.22188 117.3625L65.2375 117.2375L66.06563 112.83125L70.34688 112.83125L70.34688 113.83125L66.90938 113.83125L66.45625 116.14375Q67.22188 115.59688 68.06563 115.59688Q69.19063 115.59688 69.95625 116.37813Q70.7375 117.15938 70.7375 118.39375Q70.7375 119.55 70.06563 120.40938Q69.2375 121.44063 67.81563 121.44063Q66.64375 121.44063 65.89375 120.78438Q65.15938 120.12813 65.05 119.05ZM72.05 117.06563Q72.05 115.53438 72.3625 114.6125Q72.675 113.675 73.28438 113.175Q73.90938 112.675 74.84688 112.675Q75.53438 112.675 76.05 112.95625Q76.58125 113.2375 76.925 113.76875Q77.26875 114.28438 77.45625 115.03438Q77.64375 115.78438 77.64375 117.06563Q77.64375 118.58125 77.33125 119.50313Q77.03438 120.425 76.40938 120.94063Q75.8 121.44063 74.84688 121.44063Q73.6125 121.44063 72.89375 120.55Q72.05 119.4875 72.05 117.06563ZM73.12813 117.06563Q73.12813 119.175 73.62813 119.87813Q74.12813 120.58125 74.84688 120.58125Q75.58125 120.58125 76.06563 119.87813Q76.56563 119.175 76.56563 117.06563Q76.56563 114.94063 76.06563 114.25313Q75.58125 113.55 74.83125 113.55Q74.1125 113.55 73.675 114.15938Q73.12813 114.94063 73.12813 117.06563Z" fill-rule="nonzero"/><path fill="#000000" d="M55.01875 65.916664L53.971874 65.916664L53.971874 59.197914Q53.58125 59.55729 52.95625 59.93229Q52.346874 60.291664 51.8625 60.46354L51.8625 59.447914Q52.7375 59.02604 53.39375 58.447914Q54.065624 57.854164 54.346874 57.291664L55.01875 57.291664L55.01875 65.916664ZM58.05 61.68229Q58.05 60.15104 58.3625 59.229164Q58.675 58.291664 59.284374 57.791664Q59.909374 57.291664 60.846874 57.291664Q61.534374 57.291664 62.05 57.572914Q62.58125 57.854164 62.925 58.385414Q63.26875 58.90104 63.45625 59.65104Q63.64375 60.40104 63.64375 61.68229Q63.64375 63.197914 63.33125 64.11979Q63.034374 65.041664 62.409374 65.55729Q61.8 66.05729 60.846874 66.05729Q59.6125 66.05729 58.89375 65.166664Q58.05 64.104164 58.05 61.68229ZM59.128124 61.68229Q59.128124 63.791664 59.628124 64.49479Q60.128124 65.197914 60.846874 65.197914Q61.58125 65.197914 62.065624 64.49479Q62.565624 63.791664 62.565624 61.68229Q62.565624 59.55729 62.065624 58.86979Q61.58125 58.166664 60.83125 58.166664Q60.1125 58.166664 59.675 58.77604Q59.128124 59.55729 59.128124 61.68229ZM65.05 61.68229Q65.05 60.15104 65.3625 59.229164Q65.675 58.291664 66.28438 57.791664Q66.90938 57.291664 67.84688 57.291664Q68.53438 57.291664 69.05 57.572914Q69.58125 57.854164 69.925 58.385414Q70.26875 58.90104 70.45625 59.65104Q70.64375 60.40104 70.64375 61.68229Q70.64375 63.197914 70.33125 64.11979Q70.03438 65.041664 69.40938 65.55729Q68.8 66.05729 67.84688 66.05729Q66.6125 66.05729 65.89375 65.166664Q65.05 64.104164 65.05 61.68229ZM66.12813 61.68229Q66.12813 63.791664 66.62813 64.49479Q67.12813 65.197914 67.84688 65.197914Q68.58125 65.197914 69.06563 64.49479Q69.56563 63.791664 69.56563 61.68229Q69.56563 59.55729 69.06563 58.86979Q68.58125 58.166664 67.83125 58.166664Q67.1125 58.166664 66.675 58.77604Q66.12813 59.55729 66.12813 61.68229ZM72.05 61.68229Q72.05 60.15104 72.3625 59.229164Q72.675 58.291664 73.28438 57.791664Q73.90938 57.291664 74.84688 57.291664Q75.53438 57.291664 76.05 57.572914Q76.58125 57.854164 76.925 58.385414Q77.26875 58.90104 77.45625 59.65104Q77.64375 60.40104 77.64375 61.68229Q77.64375 63.197914 77.33125 64.11979Q77.03438 65.041664 76.40938 65.55729Q75.8 66.05729 74.84688 66.05729Q73.6125 66.05729 72.89375 65.166664Q72.05 64.104164 72.05 61.68229ZM73.12813 61.68229Q73.12813 63.791664 73.62813 64.49479Q74.12813 65.197914 74.84688 65.197914Q75.58125 65.197914 76.06563 64.49479Q76.56563 63.791664 76.56563 61.68229Q76.56563 59.55729 76.06563 58.86979Q75.58125 58.166664 74.83125 58.166664Q74.1125 58.166664 73.675 58.77604Q73.12813 59.55729 73.12813 61.68229Z" fill-rule="nonzero"/><path fill="#000000" d="M119.98101 316.4344L119.98101 317.45L114.29351 317.45Q114.29351 317.075 114.41851 316.71564Q114.63726 316.1375 115.10601 315.575Q115.590385 315.0125 116.496635 314.27814Q117.902885 313.1219 118.38726 312.45Q118.88726 311.77814 118.88726 311.1844Q118.88726 310.5594 118.434135 310.1375Q117.98101 309.7 117.26226 309.7Q116.496635 309.7 116.04351 310.15314Q115.590385 310.60626 115.57476 311.41876L114.496635 311.3094Q114.60601 310.09064 115.32476 309.46564Q116.059135 308.825 117.29351 308.825Q118.527885 308.825 119.246635 309.5125Q119.965385 310.2 119.965385 311.21564Q119.965385 311.73126 119.746635 312.23126Q119.54351 312.71564 119.04351 313.27814Q118.559135 313.825 117.434135 314.77814Q116.48101 315.575 116.19976 315.8719Q115.934135 316.15314 115.76226 316.4344L119.98101 316.4344ZM121.434135 313.21564Q121.434135 311.6844 121.746635 310.7625Q122.059135 309.825 122.66851 309.325Q123.29351 308.825 124.23101 308.825Q124.91851 308.825 125.434135 309.10626Q125.965385 309.3875 126.309135 309.91876Q126.652885 310.4344 126.840385 311.1844Q127.027885 311.9344 127.027885 313.21564Q127.027885 314.73126 126.715385 315.65314Q126.41851 316.575 125.79351 317.09064Q125.184135 317.59064 124.23101 317.59064Q122.996635 317.59064 122.277885 316.7Q121.434135 315.6375 121.434135 313.21564ZM122.51226 313.21564Q122.51226 315.325 123.01226 316.02814Q123.51226 316.73126 124.23101 316.73126Q124.965385 316.73126 125.44976 316.02814Q125.94976 315.325 125.94976 313.21564Q125.94976 311.09064 125.44976 310.40314Q124.965385 309.7 124.215385 309.7Q123.496635 309.7 123.059135 310.3094Q122.51226 311.09064 122.51226 313.21564ZM132.4029 317.45L131.35602 317.45L131.35602 310.73126Q130.9654 311.09064 130.3404 311.46564Q129.73102 311.825 129.24664 311.9969L129.24664 310.98126Q130.12164 310.5594 130.7779 309.98126Q131.44977 309.3875 131.73102 308.825L132.4029 308.825L132.4029 317.45ZM140.9029 310.96564L139.85602 311.04376Q139.7154 310.41876 139.4654 310.1375Q139.0279 309.6844 138.4029 309.6844Q137.9029 309.6844 137.51227 309.96564Q137.0279 310.34064 136.73102 311.04376Q136.44977 311.73126 136.43414 313.0125Q136.80914 312.4344 137.35602 312.15314Q137.91852 311.8719 138.5279 311.8719Q139.57477 311.8719 140.30914 312.65314Q141.05914 313.4344 141.05914 314.65314Q141.05914 315.46564 140.69977 316.16876Q140.35602 316.85626 139.74664 317.23126Q139.13727 317.59064 138.37164 317.59064Q137.04352 317.59064 136.2154 316.6219Q135.38727 315.65314 135.38727 313.4344Q135.38727 310.9344 136.30914 309.8094Q137.10602 308.825 138.4654 308.825Q139.48102 308.825 140.12164 309.40314Q140.7779 309.96564 140.9029 310.96564ZM136.60602 314.66876Q136.60602 315.21564 136.82477 315.71564Q137.05914 316.2 137.4654 316.46564Q137.88727 316.73126 138.35602 316.73126Q139.01227 316.73126 139.49664 316.2Q139.98102 315.65314 139.98102 314.73126Q139.98102 313.84064 139.49664 313.325Q139.0279 312.8094 138.30914 312.8094Q137.5904 312.8094 137.0904 313.325Q136.60602 313.84064 136.60602 314.66876Z" fill-rule="nonzero"/><path fill="#000000" d="M193.14268 316.4344L193.14268 317.45L187.45518 317.45Q187.45518 317.075 187.58018 316.71564Q187.79893 316.1375 188.26768 315.575Q188.75206 315.0125 189.65831 314.27814Q191.06456 313.1219 191.54893 312.45Q192.04893 311.77814 192.04893 311.1844Q192.04893 310.5594 191.59581 310.1375Q191.14268 309.7 190.42393 309.7Q189.65831 309.7 189.20518 310.15314Q188.75206 310.60626 188.73643 311.41876L187.65831 311.3094Q187.76768 310.09064 188.48643 309.46564Q189.22081 308.825 190.45518 308.825Q191.68956 308.825 192.40831 309.5125Q193.12706 310.2 193.12706 311.21564Q193.12706 311.73126 192.90831 312.23126Q192.70518 312.71564 192.20518 313.27814Q191.72081 313.825 190.59581 314.77814Q189.64268 315.575 189.36143 315.8719Q189.09581 316.15314 188.92393 316.4344L193.14268 316.4344ZM194.59581 313.21564Q194.59581 311.6844 194.90831 310.7625Q195.22081 309.825 195.83018 309.325Q196.45518 308.825 197.39268 308.825Q198.08018 308.825 198.59581 309.10626Q199.12706 309.3875 199.47081 309.91876Q199.81456 310.4344 200.00206 311.1844Q200.18956 311.9344 200.18956 313.21564Q200.18956 314.73126 199.87706 315.65314Q199.58018 316.575 198.95518 317.09064Q198.34581 317.59064 197.39268 317.59064Q196.15831 317.59064 195.43956 316.7Q194.59581 315.6375 194.59581 313.21564ZM195.67393 313.21564Q195.67393 315.325 196.17393 316.02814Q196.67393 316.73126 197.39268 316.73126Q198.12706 316.73126 198.61143 316.02814Q199.11143 315.325 199.11143 313.21564Q199.11143 311.09064 198.61143 310.40314Q198.12706 309.7 197.37706 309.7Q196.65831 309.7 196.22081 310.3094Q195.67393 311.09064 195.67393 313.21564ZM205.56456 317.45L204.51768 317.45L204.51768 310.73126Q204.12706 311.09064 203.50206 311.46564Q202.89268 311.825 202.40831 311.9969L202.40831 310.98126Q203.28331 310.5594 203.93956 309.98126Q204.61143 309.3875 204.89268 308.825L205.56456 308.825L205.56456 317.45ZM208.65831 309.98126L208.65831 308.96564L214.22081 308.96564L214.22081 309.79376Q213.40831 310.66876 212.59581 312.1219Q211.79893 313.5594 211.36143 315.09064Q211.03331 316.16876 210.95518 317.45L209.86143 317.45Q209.87706 316.4344 210.25206 314.9969Q210.64268 313.5594 211.34581 312.23126Q212.06456 310.90314 212.87706 309.98126L208.65831 309.98126Z" fill-rule="nonzero"/><path fill="#000000" d="M266.30435 316.4344L266.30435 317.45L260.61685 317.45Q260.61685 317.075 260.74185 316.71564Q260.9606 316.1375 261.42935 315.575Q261.91373 315.0125 262.81998 314.27814Q264.22623 313.1219 264.7106 312.45Q265.2106 311.77814 265.2106 311.1844Q265.2106 310.5594 264.75748 310.1375Q264.30435 309.7 263.5856 309.7Q262.81998 309.7 262.36685 310.15314Q261.91373 310.60626 261.8981 311.41876L260.81998 311.3094Q260.92935 310.09064 261.6481 309.46564Q262.38248 308.825 263.61685 308.825Q264.85123 308.825 265.56998 309.5125Q266.28873 310.2 266.28873 311.21564Q266.28873 311.73126 266.06998 312.23126Q265.86685 312.71564 265.36685 313.27814Q264.88248 313.825 263.75748 314.77814Q262.80435 315.575 262.5231 315.8719Q262.25748 316.15314 262.0856 316.4344L266.30435 316.4344ZM267.75748 313.21564Q267.75748 311.6844 268.06998 310.7625Q268.38248 309.825 268.99185 309.325Q269.61685 308.825 270.55435 308.825Q271.24185 308.825 271.75748 309.10626Q272.28873 309.3875 272.63248 309.91876Q272.97623 310.4344 273.16373 311.1844Q273.35123 311.9344 273.35123 313.21564Q273.35123 314.73126 273.03873 315.65314Q272.74185 316.575 272.11685 317.09064Q271.50748 317.59064 270.55435 317.59064Q269.31998 317.59064 268.60123 316.7Q267.75748 315.6375 267.75748 313.21564ZM268.8356 313.21564Q268.8356 315.325 269.3356 316.02814Q269.8356 316.73126 270.55435 316.73126Q271.28873 316.73126 271.7731 316.02814Q272.2731 315.325 272.2731 313.21564Q272.2731 311.09064 271.7731 310.40314Q271.28873 309.7 270.53873 309.7Q269.81998 309.7 269.38248 310.3094Q268.8356 311.09064 268.8356 313.21564ZM278.72623 317.45L277.67935 317.45L277.67935 310.73126Q277.28873 311.09064 276.66373 311.46564Q276.05435 311.825 275.56998 311.9969L275.56998 310.98126Q276.44498 310.5594 277.10123 309.98126Q277.7731 309.3875 278.05435 308.825L278.72623 308.825L278.72623 317.45ZM283.38248 312.79376Q282.72623 312.54376 282.3981 312.10626Q282.0856 311.65314 282.0856 311.04376Q282.0856 310.10626 282.75748 309.46564Q283.44498 308.825 284.55435 308.825Q285.67935 308.825 286.36685 309.48126Q287.05435 310.1375 287.05435 311.075Q287.05435 311.66876 286.74185 312.10626Q286.42935 312.54376 285.78873 312.79376Q286.5856 313.04376 286.99185 313.6219Q287.3981 314.2 287.3981 314.9969Q287.3981 316.09064 286.61685 316.84064Q285.85123 317.59064 284.56998 317.59064Q283.30435 317.59064 282.5231 316.84064Q281.74185 316.09064 281.74185 314.96564Q281.74185 314.1219 282.16373 313.5594Q282.60123 312.9969 283.38248 312.79376ZM283.16373 310.9969Q283.16373 311.60626 283.55435 311.9969Q283.9606 312.3875 284.5856 312.3875Q285.19498 312.3875 285.5856 312.0125Q285.97623 311.6219 285.97623 311.0594Q285.97623 310.48126 285.56998 310.09064Q285.16373 309.6844 284.56998 309.6844Q283.9606 309.6844 283.55435 310.075Q283.16373 310.46564 283.16373 310.9969ZM282.8356 314.96564Q282.8356 315.41876 283.03873 315.84064Q283.25748 316.2625 283.67935 316.4969Q284.10123 316.73126 284.5856 316.73126Q285.3356 316.73126 285.81998 316.2469Q286.31998 315.7625 286.31998 315.0125Q286.31998 314.2469 285.81998 313.7469Q285.31998 313.2469 284.55435 313.2469Q283.80435 313.2469 283.31998 313.7469Q282.8356 314.23126 282.8356 314.96564Z" fill-rule="nonzero"/><path fill="#000000" d="M339.46603 316.4344L339.46603 317.45L333.77853 317.45Q333.77853 317.075 333.90353 316.71564Q334.12228 316.1375 334.59103 315.575Q335.0754 315.0125 335.98166 314.27814Q337.3879 313.1219 337.87228 312.45Q338.37228 311.77814 338.37228 311.1844Q338.37228 310.5594 337.91916 310.1375Q337.46603 309.7 336.74728 309.7Q335.98166 309.7 335.52853 310.15314Q335.0754 310.60626 335.05978 311.41876L333.98166 311.3094Q334.09103 310.09064 334.80978 309.46564Q335.54416 308.825 336.77853 308.825Q338.0129 308.825 338.73166 309.5125Q339.4504 310.2 339.4504 311.21564Q339.4504 311.73126 339.23166 312.23126Q339.02853 312.71564 338.52853 313.27814Q338.04416 313.825 336.91916 314.77814Q335.96603 315.575 335.68478 315.8719Q335.41916 316.15314 335.24728 316.4344L339.46603 316.4344ZM340.91916 313.21564Q340.91916 311.6844 341.23166 310.7625Q341.54416 309.825 342.15353 309.325Q342.77853 308.825 343.71603 308.825Q344.40353 308.825 344.91916 309.10626Q345.4504 309.3875 345.79416 309.91876Q346.1379 310.4344 346.3254 311.1844Q346.5129 311.9344 346.5129 313.21564Q346.5129 314.73126 346.2004 315.65314Q345.90353 316.575 345.27853 317.09064Q344.66916 317.59064 343.71603 317.59064Q342.48166 317.59064 341.7629 316.7Q340.91916 315.6375 340.91916 313.21564ZM341.99728 313.21564Q341.99728 315.325 342.49728 316.02814Q342.99728 316.73126 343.71603 316.73126Q344.4504 316.73126 344.93478 316.02814Q345.43478 315.325 345.43478 313.21564Q345.43478 311.09064 344.93478 310.40314Q344.4504 309.7 343.7004 309.7Q342.98166 309.7 342.54416 310.3094Q341.99728 311.09064 341.99728 313.21564ZM351.8879 317.45L350.84103 317.45L350.84103 310.73126Q350.4504 311.09064 349.8254 311.46564Q349.21603 311.825 348.73166 311.9969L348.73166 310.98126Q349.60666 310.5594 350.2629 309.98126Q350.93478 309.3875 351.21603 308.825L351.8879 308.825L351.8879 317.45ZM355.0754 315.46564L356.09103 315.3719Q356.21603 316.09064 356.5754 316.41876Q356.9504 316.73126 357.5129 316.73126Q357.99728 316.73126 358.35666 316.5125Q358.73166 316.27814 358.96603 315.91876Q359.2004 315.54376 359.35666 314.91876Q359.5129 314.27814 359.5129 313.6219Q359.5129 313.54376 359.5129 313.40314Q359.2004 313.90314 358.65353 314.23126Q358.10666 314.54376 357.46603 314.54376Q356.3879 314.54376 355.65353 313.77814Q354.91916 312.9969 354.91916 311.73126Q354.91916 310.41876 355.68478 309.6219Q356.46603 308.825 357.62228 308.825Q358.4504 308.825 359.1379 309.27814Q359.84103 309.73126 360.2004 310.575Q360.55978 311.40314 360.55978 312.98126Q360.55978 314.6219 360.2004 315.60626Q359.85666 316.575 359.1379 317.09064Q358.43478 317.59064 357.49728 317.59064Q356.48166 317.59064 355.84103 317.04376Q355.2004 316.48126 355.0754 315.46564ZM359.3879 311.66876Q359.3879 310.7625 358.90353 310.23126Q358.43478 309.7 357.74728 309.7Q357.04416 309.7 356.5129 310.27814Q355.99728 310.84064 355.99728 311.7625Q355.99728 312.575 356.49728 313.09064Q356.99728 313.60626 357.71603 313.60626Q358.4504 313.60626 358.91916 313.09064Q359.3879 312.575 359.3879 311.66876Z" fill-rule="nonzero"/><path fill="#000000" d="M412.62772 316.4344L412.62772 317.45L406.94022 317.45Q406.94022 317.075 407.06522 316.71564Q407.28397 316.1375 407.75272 315.575Q408.2371 315.0125 409.14334 314.27814Q410.5496 313.1219 411.03397 312.45Q411.53397 311.77814 411.53397 311.1844Q411.53397 310.5594 411.08084 310.1375Q410.62772 309.7 409.90897 309.7Q409.14334 309.7 408.69022 310.15314Q408.2371 310.60626 408.22147 311.41876L407.14334 311.3094Q407.25272 310.09064 407.97147 309.46564Q408.70584 308.825 409.94022 308.825Q411.1746 308.825 411.89334 309.5125Q412.6121 310.2 412.6121 311.21564Q412.6121 311.73126 412.39334 312.23126Q412.19022 312.71564 411.69022 313.27814Q411.20584 313.825 410.08084 314.77814Q409.12772 315.575 408.84647 315.8719Q408.58084 316.15314 408.40897 316.4344L412.62772 316.4344ZM414.08084 313.21564Q414.08084 311.6844 414.39334 310.7625Q414.70584 309.825 415.31522 309.325Q415.94022 308.825 416.87772 308.825Q417.56522 308.825 418.08084 309.10626Q418.6121 309.3875 418.95584 309.91876Q419.2996 310.4344 419.4871 311.1844Q419.6746 311.9344 419.6746 313.21564Q419.6746 314.73126 419.3621 315.65314Q419.06522 316.575 418.44022 317.09064Q417.83084 317.59064 416.87772 317.59064Q415.64334 317.59064 414.9246 316.7Q414.08084 315.6375 414.08084 313.21564ZM415.15897 313.21564Q415.15897 315.325 415.65897 316.02814Q416.15897 316.73126 416.87772 316.73126Q417.6121 316.73126 418.09647 316.02814Q418.59647 315.325 418.59647 313.21564Q418.59647 311.09064 418.09647 310.40314Q417.6121 309.7 416.8621 309.7Q416.14334 309.7 415.70584 310.3094Q415.15897 311.09064 415.15897 313.21564ZM426.62772 316.4344L426.62772 317.45L420.94022 317.45Q420.94022 317.075 421.06522 316.71564Q421.28397 316.1375 421.75272 315.575Q422.2371 315.0125 423.14334 314.27814Q424.5496 313.1219 425.03397 312.45Q425.53397 311.77814 425.53397 311.1844Q425.53397 310.5594 425.08084 310.1375Q424.62772 309.7 423.90897 309.7Q423.14334 309.7 422.69022 310.15314Q422.2371 310.60626 422.22147 311.41876L421.14334 311.3094Q421.25272 310.09064 421.97147 309.46564Q422.70584 308.825 423.94022 308.825Q425.1746 308.825 425.89334 309.5125Q426.6121 310.2 426.6121 311.21564Q426.6121 311.73126 426.39334 312.23126Q426.19022 312.71564 425.69022 313.27814Q425.20584 313.825 424.08084 314.77814Q423.12772 315.575 422.84647 315.8719Q422.58084 316.15314 422.40897 316.4344L426.62772 316.4344ZM428.08084 313.21564Q428.08084 311.6844 428.39334 310.7625Q428.70584 309.825 429.31522 309.325Q429.94022 308.825 430.87772 308.825Q431.56522 308.825 432.08084 309.10626Q432.6121 309.3875 432.95584 309.91876Q433.2996 310.4344 433.4871 311.1844Q433.6746 311.9344 433.6746 313.21564Q433.6746 314.73126 433.3621 315.65314Q433.06522 316.575 432.44022 317.09064Q431.83084 317.59064 430.87772 317.59064Q429.64334 317.59064 428.9246 316.7Q428.08084 315.6375 428.08084 313.21564ZM429.15897 313.21564Q429.15897 315.325 429.65897 316.02814Q430.15897 316.73126 430.87772 316.73126Q431.6121 316.73126 432.09647 316.02814Q432.59647 315.325 432.59647 313.21564Q432.59647 311.09064 432.09647 310.40314Q431.6121 309.7 430.8621 309.7Q430.14334 309.7 429.70584 310.3094Q429.15897 311.09064 429.15897 313.21564Z" fill-rule="nonzero"/><path fill="#000000" d="M485.7894 316.4344L485.7894 317.45L480.1019 317.45Q480.1019 317.075 480.2269 316.71564Q480.44565 316.1375 480.9144 315.575Q481.39877 315.0125 482.30502 314.27814Q483.71127 313.1219 484.19565 312.45Q484.69565 311.77814 484.69565 311.1844Q484.69565 310.5594 484.24252 310.1375Q483.7894 309.7 483.07065 309.7Q482.30502 309.7 481.8519 310.15314Q481.39877 310.60626 481.38315 311.41876L480.30502 311.3094Q480.4144 310.09064 481.13315 309.46564Q481.86752 308.825 483.1019 308.825Q484.33627 308.825 485.05502 309.5125Q485.77377 310.2 485.77377 311.21564Q485.77377 311.73126 485.55502 312.23126Q485.3519 312.71564 484.8519 313.27814Q484.36752 313.825 483.24252 314.77814Q482.2894 315.575 482.00815 315.8719Q481.74252 316.15314 481.57065 316.4344L485.7894 316.4344ZM487.24252 313.21564Q487.24252 311.6844 487.55502 310.7625Q487.86752 309.825 488.4769 309.325Q489.1019 308.825 490.0394 308.825Q490.7269 308.825 491.24252 309.10626Q491.77377 309.3875 492.11752 309.91876Q492.46127 310.4344 492.64877 311.1844Q492.83627 311.9344 492.83627 313.21564Q492.83627 314.73126 492.52377 315.65314Q492.2269 316.575 491.6019 317.09064Q490.99252 317.59064 490.0394 317.59064Q488.80502 317.59064 488.08627 316.7Q487.24252 315.6375 487.24252 313.21564ZM488.32065 313.21564Q488.32065 315.325 488.82065 316.02814Q489.32065 316.73126 490.0394 316.73126Q490.77377 316.73126 491.25815 316.02814Q491.75815 315.325 491.75815 313.21564Q491.75815 311.09064 491.25815 310.40314Q490.77377 309.7 490.02377 309.7Q489.30502 309.7 488.86752 310.3094Q488.32065 311.09064 488.32065 313.21564ZM499.7894 316.4344L499.7894 317.45L494.1019 317.45Q494.1019 317.075 494.2269 316.71564Q494.44565 316.1375 494.9144 315.575Q495.39877 315.0125 496.30502 314.27814Q497.71127 313.1219 498.19565 312.45Q498.69565 311.77814 498.69565 311.1844Q498.69565 310.5594 498.24252 310.1375Q497.7894 309.7 497.07065 309.7Q496.30502 309.7 495.8519 310.15314Q495.39877 310.60626 495.38315 311.41876L494.30502 311.3094Q494.4144 310.09064 495.13315 309.46564Q495.86752 308.825 497.1019 308.825Q498.33627 308.825 499.05502 309.5125Q499.77377 310.2 499.77377 311.21564Q499.77377 311.73126 499.55502 312.23126Q499.3519 312.71564 498.8519 313.27814Q498.36752 313.825 497.24252 314.77814Q496.2894 315.575 496.00815 315.8719Q495.74252 316.15314 495.57065 316.4344L499.7894 316.4344ZM505.21127 317.45L504.1644 317.45L504.1644 310.73126Q503.77377 311.09064 503.14877 311.46564Q502.5394 311.825 502.05502 311.9969L502.05502 310.98126Q502.93002 310.5594 503.58627 309.98126Q504.25815 309.3875 504.5394 308.825L505.21127 308.825L505.21127 317.45Z" fill-rule="nonzero"/><path fill="#000000" d="M558.95105 316.4344L558.95105 317.45L553.26355 317.45Q553.26355 317.075 553.38855 316.71564Q553.6073 316.1375 554.07605 315.575Q554.5604 315.0125 555.4667 314.27814Q556.8729 313.1219 557.3573 312.45Q557.8573 311.77814 557.8573 311.1844Q557.8573 310.5594 557.4042 310.1375Q556.95105 309.7 556.2323 309.7Q555.4667 309.7 555.01355 310.15314Q554.5604 310.60626 554.5448 311.41876L553.4667 311.3094Q553.57605 310.09064 554.2948 309.46564Q555.0292 308.825 556.26355 308.825Q557.4979 308.825 558.2167 309.5125Q558.9354 310.2 558.9354 311.21564Q558.9354 311.73126 558.7167 312.23126Q558.51355 312.71564 558.01355 313.27814Q557.5292 313.825 556.4042 314.77814Q555.45105 315.575 555.1698 315.8719Q554.9042 316.15314 554.7323 316.4344L558.95105 316.4344ZM560.4042 313.21564Q560.4042 311.6844 560.7167 310.7625Q561.0292 309.825 561.63855 309.325Q562.26355 308.825 563.20105 308.825Q563.88855 308.825 564.4042 309.10626Q564.9354 309.3875 565.2792 309.91876Q565.6229 310.4344 565.8104 311.1844Q565.9979 311.9344 565.9979 313.21564Q565.9979 314.73126 565.6854 315.65314Q565.38855 316.575 564.76355 317.09064Q564.1542 317.59064 563.20105 317.59064Q561.9667 317.59064 561.2479 316.7Q560.4042 315.6375 560.4042 313.21564ZM561.4823 313.21564Q561.4823 315.325 561.9823 316.02814Q562.4823 316.73126 563.20105 316.73126Q563.9354 316.73126 564.4198 316.02814Q564.9198 315.325 564.9198 313.21564Q564.9198 311.09064 564.4198 310.40314Q563.9354 309.7 563.1854 309.7Q562.4667 309.7 562.0292 310.3094Q561.4823 311.09064 561.4823 313.21564ZM572.95105 316.4344L572.95105 317.45L567.26355 317.45Q567.26355 317.075 567.38855 316.71564Q567.6073 316.1375 568.07605 315.575Q568.5604 315.0125 569.4667 314.27814Q570.8729 313.1219 571.3573 312.45Q571.8573 311.77814 571.8573 311.1844Q571.8573 310.5594 571.4042 310.1375Q570.95105 309.7 570.2323 309.7Q569.4667 309.7 569.01355 310.15314Q568.5604 310.60626 568.5448 311.41876L567.4667 311.3094Q567.57605 310.09064 568.2948 309.46564Q569.0292 308.825 570.26355 308.825Q571.4979 308.825 572.2167 309.5125Q572.9354 310.2 572.9354 311.21564Q572.9354 311.73126 572.7167 312.23126Q572.51355 312.71564 572.01355 313.27814Q571.5292 313.825 570.4042 314.77814Q569.45105 315.575 569.1698 315.8719Q568.9042 316.15314 568.7323 316.4344L572.95105 316.4344ZM579.95105 316.4344L579.95105 317.45L574.26355 317.45Q574.26355 317.075 574.38855 316.71564Q574.6073 316.1375 575.07605 315.575Q575.5604 315.0125 576.4667 314.27814Q577.8729 313.1219 578.3573 312.45Q578.8573 311.77814 578.8573 311.1844Q578.8573 310.5594 578.4042 310.1375Q577.95105 309.7 577.2323 309.7Q576.4667 309.7 576.01355 310.15314Q575.5604 310.60626 575.5448 311.41876L574.4667 311.3094Q574.57605 310.09064 575.2948 309.46564Q576.0292 308.825 577.26355 308.825Q578.4979 308.825 579.2167 309.5125Q579.9354 310.2 579.9354 311.21564Q579.9354 311.73126 579.7167 312.23126Q579.51355 312.71564 579.01355 313.27814Q578.5292 313.825 577.4042 314.77814Q576.45105 315.575 576.1698 315.8719Q575.9042 316.15314 575.7323 316.4344L579.95105 316.4344Z" fill-rule="nonzero"/><path fill="#000000" d="M632.11273 316.4344L632.11273 317.45L626.42523 317.45Q626.42523 317.075 626.55023 316.71564Q626.769 316.1375 627.23773 315.575Q627.7221 315.0125 628.62836 314.27814Q630.0346 313.1219 630.519 312.45Q631.019 311.77814 631.019 311.1844Q631.019 310.5594 630.56586 310.1375Q630.11273 309.7 629.394 309.7Q628.62836 309.7 628.17523 310.15314Q627.7221 310.60626 627.7065 311.41876L626.62836 311.3094Q626.73773 310.09064 627.4565 309.46564Q628.19086 308.825 629.42523 308.825Q630.6596 308.825 631.37836 309.5125Q632.0971 310.2 632.0971 311.21564Q632.0971 311.73126 631.87836 312.23126Q631.67523 312.71564 631.17523 313.27814Q630.69086 313.825 629.56586 314.77814Q628.61273 315.575 628.3315 315.8719Q628.06586 316.15314 627.894 316.4344L632.11273 316.4344ZM633.56586 313.21564Q633.56586 311.6844 633.87836 310.7625Q634.19086 309.825 634.80023 309.325Q635.42523 308.825 636.36273 308.825Q637.05023 308.825 637.56586 309.10626Q638.0971 309.3875 638.44086 309.91876Q638.7846 310.4344 638.9721 311.1844Q639.1596 311.9344 639.1596 313.21564Q639.1596 314.73126 638.8471 315.65314Q638.55023 316.575 637.92523 317.09064Q637.31586 317.59064 636.36273 317.59064Q635.12836 317.59064 634.4096 316.7Q633.56586 315.6375 633.56586 313.21564ZM634.644 313.21564Q634.644 315.325 635.144 316.02814Q635.644 316.73126 636.36273 316.73126Q637.0971 316.73126 637.5815 316.02814Q638.0815 315.325 638.0815 313.21564Q638.0815 311.09064 637.5815 310.40314Q637.0971 309.7 636.3471 309.7Q635.62836 309.7 635.19086 310.3094Q634.644 311.09064 634.644 313.21564ZM646.11273 316.4344L646.11273 317.45L640.42523 317.45Q640.42523 317.075 640.55023 316.71564Q640.769 316.1375 641.23773 315.575Q641.7221 315.0125 642.62836 314.27814Q644.0346 313.1219 644.519 312.45Q645.019 311.77814 645.019 311.1844Q645.019 310.5594 644.56586 310.1375Q644.11273 309.7 643.394 309.7Q642.62836 309.7 642.17523 310.15314Q641.7221 310.60626 641.7065 311.41876L640.62836 311.3094Q640.73773 310.09064 641.4565 309.46564Q642.19086 308.825 643.42523 308.825Q644.6596 308.825 645.37836 309.5125Q646.0971 310.2 646.0971 311.21564Q646.0971 311.73126 645.87836 312.23126Q645.67523 312.71564 645.17523 313.27814Q644.69086 313.825 643.56586 314.77814Q642.61273 315.575 642.3315 315.8719Q642.06586 316.15314 641.894 316.4344L646.11273 316.4344ZM647.56586 315.1844L648.62836 315.04376Q648.80023 315.9344 649.23773 316.34064Q649.67523 316.73126 650.30023 316.73126Q651.05023 316.73126 651.56586 316.21564Q652.0815 315.7 652.0815 314.9344Q652.0815 314.21564 651.5971 313.7469Q651.12836 313.2625 650.394 313.2625Q650.0971 313.2625 649.644 313.3875L649.769 312.45Q649.87836 312.46564 649.94086 312.46564Q650.61273 312.46564 651.144 312.1219Q651.69086 311.7625 651.69086 311.02814Q651.69086 310.45 651.30023 310.075Q650.9096 309.6844 650.2846 309.6844Q649.67523 309.6844 649.25336 310.075Q648.8471 310.46564 648.73773 311.23126L647.67523 311.04376Q647.86273 309.9969 648.55023 309.41876Q649.23773 308.825 650.25336 308.825Q650.9565 308.825 651.55023 309.1375Q652.144 309.4344 652.4565 309.95Q652.769 310.46564 652.769 311.0594Q652.769 311.60626 652.4721 312.075Q652.17523 312.52814 651.5971 312.79376Q652.3471 312.96564 652.769 313.52814Q653.19086 314.075 653.19086 314.91876Q653.19086 316.04376 652.36273 316.825Q651.55023 317.60626 650.30023 317.60626Q649.17523 317.60626 648.42523 316.9344Q647.67523 316.2469 647.56586 315.1844Z" fill-rule="nonzero"/><path fill="#757575" d="M20.096874 37.55L20.096874 23.2375L25.4875 23.2375Q26.925 23.2375 27.675 23.3625Q28.721874 23.55 29.440624 24.05Q30.159374 24.534374 30.58125 25.425Q31.01875 26.315624 31.01875 27.378124Q31.01875 29.20625 29.846874 30.471874Q28.690624 31.721874 25.659374 31.721874L21.9875 31.721874L21.9875 37.55L20.096874 37.55ZM21.9875 30.034374L25.690624 30.034374Q27.51875 30.034374 28.284374 29.3625Q29.065624 28.675 29.065624 27.425Q29.065624 26.534374 28.6125 25.89375Q28.159374 25.253124 27.425 25.05Q26.940624 24.925 25.64375 24.925L21.9875 24.925L21.9875 30.034374ZM32.221874 32.3625Q32.221874 29.4875 33.815624 28.096874Q35.159374 26.940624 37.08125 26.940624Q39.221874 26.940624 40.565624 28.346874Q41.925 29.753124 41.925 32.221874Q41.925 34.221874 41.33125 35.378124Q40.7375 36.51875 39.58125 37.159374Q38.440624 37.784374 37.08125 37.784374Q34.89375 37.784374 33.55 36.39375Q32.221874 34.9875 32.221874 32.3625ZM34.01875 32.3625Q34.01875 34.3625 34.878124 35.346874Q35.753124 36.33125 37.08125 36.33125Q38.39375 36.33125 39.253124 35.346874Q40.128124 34.346874 40.128124 32.3Q40.128124 30.378124 39.253124 29.39375Q38.378124 28.39375 37.08125 28.39375Q35.753124 28.39375 34.878124 29.39375Q34.01875 30.378124 34.01875 32.3625ZM50.64375 33.753124L52.3625 33.971874Q52.08125 35.76875 50.909374 36.784374Q49.753124 37.784374 48.05 37.784374Q45.925 37.784374 44.628124 36.39375Q43.33125 35.003124 43.33125 32.409374Q43.33125 30.721874 43.878124 29.471874Q44.440624 28.20625 45.58125 27.58125Q46.721874 26.940624 48.065624 26.940624Q49.753124 26.940624 50.815624 27.8Q51.89375 28.659374 52.20625 30.221874L50.4875 30.4875Q50.253124 29.440624 49.628124 28.925Q49.003124 28.39375 48.128124 28.39375Q46.8 28.39375 45.971874 29.346874Q45.14375 30.3 45.14375 32.346874Q45.14375 34.440624 45.940624 35.39375Q46.7375 36.33125 48.034374 36.33125Q49.065624 36.33125 49.753124 35.70625Q50.45625 35.065624 50.64375 33.753124ZM52.925 27.175L61.346874 27.175L61.346874 28.628124L58.003124 28.628124L58.003124 37.55L56.26875 37.55L56.26875 28.628124L52.925 28.628124L52.925 27.175ZM68.8625 27.175L70.6125 27.175L70.6125 31.659374Q71.45625 31.659374 71.78438 31.346874Q72.12813 31.01875 72.78438 29.45625Q73.3 28.2375 73.6125 27.846874Q73.94063 27.45625 74.3625 27.315624Q74.78438 27.175 75.72188 27.175L76.06563 27.175L76.06563 28.628124L75.58125 28.628124Q74.87813 28.628124 74.69063 28.83125Q74.4875 29.05 74.06563 30.1125Q73.65938 31.128124 73.33125 31.51875Q73.00313 31.909374 72.3 32.221874Q73.44063 32.534374 74.53438 34.33125L76.45625 37.55L74.51875 37.55L72.64375 34.33125Q72.06563 33.3625 71.62813 33.065624Q71.20625 32.753124 70.6125 32.753124L70.6125 37.55L68.8625 37.55L68.8625 27.175ZM77.22188 32.3625Q77.22188 29.4875 78.81563 28.096874Q80.15938 26.940624 82.08125 26.940624Q84.22188 26.940624 85.56563 28.346874Q86.925 29.753124 86.925 32.221874Q86.925 34.221874 86.33125 35.378124Q85.7375 36.51875 84.58125 37.159374Q83.44063 37.784374 82.08125 37.784374Q79.89375 37.784374 78.55 36.39375Q77.22188 34.9875 77.22188 32.3625ZM79.01875 32.3625Q79.01875 34.3625 79.87813 35.346874Q80.75313 36.33125 82.08125 36.33125Q83.39375 36.33125 84.25313 35.346874Q85.12813 34.346874 85.12813 32.3Q85.12813 30.378124 84.25313 29.39375Q83.37813 28.39375 82.08125 28.39375Q80.75313 28.39375 79.87813 29.39375Q79.01875 30.378124 79.01875 32.3625ZM89.72188 27.175L97.89375 27.175L97.89375 37.55L96.14375 37.55L96.14375 28.628124L91.4875 28.628124L91.4875 33.8Q91.4875 35.6125 91.3625 36.190624Q91.25313 36.753124 90.72188 37.190624Q90.19063 37.6125 89.20625 37.6125Q88.58125 37.6125 87.78438 37.534374L87.78438 36.08125L88.55 36.08125Q89.09688 36.08125 89.33125 35.971874Q89.56563 35.846874 89.64375 35.6125Q89.72188 35.3625 89.72188 34.01875L89.72188 27.175ZM99.19063 33.253124L99.19063 31.4875L104.58125 31.4875L104.58125 33.253124L99.19063 33.253124ZM106.87813 27.175L110.925 27.175Q112.425 27.175 113.14375 27.425Q113.87813 27.675 114.39375 28.346874Q114.925 29.003124 114.925 29.925Q114.925 30.675 114.6125 31.2375Q114.31563 31.784374 113.69063 32.14375Q114.425 32.39375 114.90938 33.065624Q115.39375 33.7375 115.39375 34.64375Q115.3 36.128124 114.33125 36.846874Q113.37813 37.55 111.55 37.55L106.87813 37.55L106.87813 27.175ZM108.64375 31.55L110.51875 31.55Q111.62813 31.55 112.05 31.440624Q112.47188 31.315624 112.8 30.95625Q113.14375 30.596874 113.14375 30.096874Q113.14375 29.284374 112.55 28.95625Q111.97188 28.628124 110.56563 28.628124L108.64375 28.628124L108.64375 31.55ZM108.64375 36.096874L110.95625 36.096874Q112.44063 36.096874 113.00313 35.753124Q113.56563 35.409374 113.58125 34.565624Q113.58125 34.065624 113.25313 33.64375Q112.94063 33.20625 112.425 33.096874Q111.90938 32.9875 110.76875 32.9875L108.64375 32.9875L108.64375 36.096874ZM124.64375 36.26875Q123.65938 37.096874 122.75313 37.440624Q121.84688 37.784374 120.81563 37.784374Q119.1125 37.784374 118.19063 36.95625Q117.26875 36.1125 117.26875 34.815624Q117.26875 34.05 117.6125 33.425Q117.97188 32.8 118.53438 32.425Q119.09688 32.034374 119.8 31.83125Q120.31563 31.70625 121.3625 31.565624Q123.4875 31.315624 124.4875 30.971874Q124.50313 30.6125 124.50313 30.503124Q124.50313 29.440624 124.00313 28.9875Q123.33125 28.39375 122.00313 28.39375Q120.75313 28.39375 120.15938 28.83125Q119.58125 29.26875 119.3 30.378124L117.58125 30.14375Q117.81563 29.034374 118.34688 28.3625Q118.87813 27.675 119.89375 27.315624Q120.90938 26.940624 122.25313 26.940624Q123.58125 26.940624 124.40938 27.253124Q125.2375 27.565624 125.62813 28.05Q126.01875 28.51875 126.175 29.2375Q126.26875 29.690624 126.26875 30.8625L126.26875 33.20625Q126.26875 35.659374 126.37813 36.315624Q126.4875 36.95625 126.83125 37.55L124.9875 37.55Q124.72188 37.003124 124.64375 36.26875ZM124.4875 32.346874Q123.53438 32.7375 121.6125 33.003124Q120.53438 33.159374 120.08125 33.3625Q119.64375 33.55 119.39375 33.925Q119.14375 34.3 119.14375 34.76875Q119.14375 35.471874 119.675 35.940624Q120.20625 36.409374 121.2375 36.409374Q122.25313 36.409374 123.03438 35.971874Q123.83125 35.51875 124.20625 34.753124Q124.4875 34.14375 124.4875 32.9875L124.4875 32.346874ZM137.15938 32.8625L137.15938 31.4875Q138.28438 31.471874 138.675 31.39375Q139.08125 31.315624 139.44063 30.925Q139.81563 30.534374 139.81563 29.95625Q139.81563 29.2375 139.33125 28.815624Q138.8625 28.39375 138.1125 28.39375Q136.62813 28.39375 136.03438 30.14375L134.3625 29.8625Q135.14375 26.940624 138.12813 26.940624Q139.78438 26.940624 140.72188 27.846874Q141.675 28.753124 141.675 30.01875Q141.675 31.284374 140.44063 32.034374Q141.22188 32.45625 141.6125 33.1125Q142.00313 33.753124 142.00313 34.64375Q142.00313 36.05 140.9875 36.925Q139.97188 37.784374 138.14375 37.784374Q134.6125 37.784374 134.03438 34.628124L135.69063 34.284374Q135.90938 35.26875 136.59688 35.815624Q137.28438 36.3625 138.175 36.3625Q139.06563 36.3625 139.65938 35.8625Q140.25313 35.3625 140.25313 34.58125Q140.25313 33.971874 139.87813 33.534374Q139.50313 33.08125 139.08125 32.971874Q138.675 32.846874 137.56563 32.846874Q137.47188 32.846874 137.15938 32.8625ZM150.64375 36.26875Q149.65938 37.096874 148.75313 37.440624Q147.84688 37.784374 146.81563 37.784374Q145.1125 37.784374 144.19063 36.95625Q143.26875 36.1125 143.26875 34.815624Q143.26875 34.05 143.6125 33.425Q143.97188 32.8 144.53438 32.425Q145.09688 32.034374 145.8 31.83125Q146.31563 31.70625 147.3625 31.565624Q149.4875 31.315624 150.4875 30.971874Q150.50313 30.6125 150.50313 30.503124Q150.50313 29.440624 150.00313 28.9875Q149.33125 28.39375 148.00313 28.39375Q146.75313 28.39375 146.15938 28.83125Q145.58125 29.26875 145.3 30.378124L143.58125 30.14375Q143.81563 29.034374 144.34688 28.3625Q144.87813 27.675 145.89375 27.315624Q146.90938 26.940624 148.25313 26.940624Q149.58125 26.940624 150.40938 27.253124Q151.2375 27.565624 151.62813 28.05Q152.01875 28.51875 152.175 29.2375Q152.26875 29.690624 152.26875 30.8625L152.26875 33.20625Q152.26875 35.659374 152.37813 36.315624Q152.4875 36.95625 152.83125 37.55L150.9875 37.55Q150.72188 37.003124 150.64375 36.26875ZM150.4875 32.346874Q149.53438 32.7375 147.6125 33.003124Q146.53438 33.159374 146.08125 33.3625Q145.64375 33.55 145.39375 33.925Q145.14375 34.3 145.14375 34.76875Q145.14375 35.471874 145.675 35.940624Q146.20625 36.409374 147.2375 36.409374Q148.25313 36.409374 149.03438 35.971874Q149.83125 35.51875 150.20625 34.753124Q150.4875 34.14375 150.4875 32.9875L150.4875 32.346874ZM154.8625 27.175L156.6125 27.175L156.6125 31.659374Q157.45625 31.659374 157.78438 31.346874Q158.12813 31.01875 158.78438 29.45625Q159.3 28.2375 159.6125 27.846874Q159.94063 27.45625 160.3625 27.315624Q160.78438 27.175 161.72188 27.175L162.06563 27.175L162.06563 28.628124L161.58125 28.628124Q160.87813 28.628124 160.69063 28.83125Q160.4875 29.05 160.06563 30.1125Q159.65938 31.128124 159.33125 31.51875Q159.00313 31.909374 158.3 32.221874Q159.44063 32.534374 160.53438 34.33125L162.45625 37.55L160.51875 37.55L158.64375 34.33125Q158.06563 33.3625 157.62813 33.065624Q157.20625 32.753124 156.6125 32.753124L156.6125 37.55L154.8625 37.55L154.8625 27.175ZM170.64375 36.26875Q169.65938 37.096874 168.75313 37.440624Q167.84688 37.784374 166.81563 37.784374Q165.1125 37.784374 164.19063 36.95625Q163.26875 36.1125 163.26875 34.815624Q163.26875 34.05 163.6125 33.425Q163.97188 32.8 164.53438 32.425Q165.09688 32.034374 165.8 31.83125Q166.31563 31.70625 167.3625 31.565624Q169.4875 31.315624 170.4875 30.971874Q170.50313 30.6125 170.50313 30.503124Q170.50313 29.440624 170.00313 28.9875Q169.33125 28.39375 168.00313 28.39375Q166.75313 28.39375 166.15938 28.83125Q165.58125 29.26875 165.3 30.378124L163.58125 30.14375Q163.81563 29.034374 164.34688 28.3625Q164.87813 27.675 165.89375 27.315624Q166.90938 26.940624 168.25313 26.940624Q169.58125 26.940624 170.40938 27.253124Q171.2375 27.565624 171.62813 28.05Q172.01875 28.51875 172.175 29.2375Q172.26875 29.690624 172.26875 30.8625L172.26875 33.20625Q172.26875 35.659374 172.37813 36.315624Q172.4875 36.95625 172.83125 37.55L170.9875 37.55Q170.72188 37.003124 170.64375 36.26875ZM170.4875 32.346874Q169.53438 32.7375 167.6125 33.003124Q166.53438 33.159374 166.08125 33.3625Q165.64375 33.55 165.39375 33.925Q165.14375 34.3 165.14375 34.76875Q165.14375 35.471874 165.675 35.940624Q166.20625 36.409374 167.2375 36.409374Q168.25313 36.409374 169.03438 35.971874Q169.83125 35.51875 170.20625 34.753124Q170.4875 34.14375 170.4875 32.9875L170.4875 32.346874ZM177.15938 32.8625L177.15938 31.4875Q178.28438 31.471874 178.675 31.39375Q179.08125 31.315624 179.44063 30.925Q179.81563 30.534374 179.81563 29.95625Q179.81563 29.2375 179.33125 28.815624Q178.8625 28.39375 178.1125 28.39375Q176.62813 28.39375 176.03438 30.14375L174.3625 29.8625Q175.14375 26.940624 178.12813 26.940624Q179.78438 26.940624 180.72188 27.846874Q181.675 28.753124 181.675 30.01875Q181.675 31.284374 180.44063 32.034374Q181.22188 32.45625 181.6125 33.1125Q182.00313 33.753124 182.00313 34.64375Q182.00313 36.05 180.9875 36.925Q179.97188 37.784374 178.14375 37.784374Q174.6125 37.784374 174.03438 34.628124L175.69063 34.284374Q175.90938 35.26875 176.59688 35.815624Q177.28438 36.3625 178.175 36.3625Q179.06563 36.3625 179.65938 35.8625Q180.25313 35.3625 180.25313 34.58125Q180.25313 33.971874 179.87813 33.534374Q179.50313 33.08125 179.08125 32.971874Q178.675 32.846874 177.56563 32.846874Q177.47188 32.846874 177.15938 32.8625ZM183.22188 32.3625Q183.22188 29.4875 184.81563 28.096874Q186.15938 26.940624 188.08125 26.940624Q190.22188 26.940624 191.56563 28.346874Q192.925 29.753124 192.925 32.221874Q192.925 34.221874 192.33125 35.378124Q191.7375 36.51875 190.58125 37.159374Q189.44063 37.784374 188.08125 37.784374Q185.89375 37.784374 184.55 36.39375Q183.22188 34.9875 183.22188 32.3625ZM185.01875 32.3625Q185.01875 34.3625 185.87813 35.346874Q186.75313 36.33125 188.08125 36.33125Q189.39375 36.33125 190.25313 35.346874Q191.12813 34.346874 191.12813 32.3Q191.12813 30.378124 190.25313 29.39375Q189.37813 28.39375 188.08125 28.39375Q186.75313 28.39375 185.87813 29.39375Q185.01875 30.378124 185.01875 32.3625ZM194.87813 27.175L198.925 27.175Q200.425 27.175 201.14375 27.425Q201.87813 27.675 202.39375 28.346874Q202.925 29.003124 202.925 29.925Q202.925 30.675 202.6125 31.2375Q202.31563 31.784374 201.69063 32.14375Q202.425 32.39375 202.90938 33.065624Q203.39375 33.7375 203.39375 34.64375Q203.3 36.128124 202.33125 36.846874Q201.37813 37.55 199.55 37.55L194.87813 37.55L194.87813 27.175ZM196.64375 31.55L198.51875 31.55Q199.62813 31.55 200.05 31.440624Q200.47188 31.315624 200.8 30.95625Q201.14375 30.596874 201.14375 30.096874Q201.14375 29.284374 200.55 28.95625Q199.97188 28.628124 198.56563 28.628124L196.64375 28.628124L196.64375 31.55ZM196.64375 36.096874L198.95625 36.096874Q200.44063 36.096874 201.00313 35.753124Q201.56563 35.409374 201.58125 34.565624Q201.58125 34.065624 201.25313 33.64375Q200.94063 33.20625 200.425 33.096874Q199.90938 32.9875 198.76875 32.9875L196.64375 32.9875L196.64375 36.096874ZM211.51875 30.58125Q211.51875 27.01875 213.425 25.003124Q215.34688 22.971874 218.37813 22.971874Q220.3625 22.971874 221.94063 23.925Q223.53438 24.878124 224.3625 26.58125Q225.20625 28.26875 225.20625 30.409374Q225.20625 32.58125 224.33125 34.3Q223.45625 36.01875 221.83125 36.909374Q220.22188 37.8 218.3625 37.8Q216.34688 37.8 214.75313 36.83125Q213.15938 35.846874 212.33125 34.159374Q211.51875 32.45625 211.51875 30.58125ZM213.47188 30.6125Q213.47188 33.190624 214.8625 34.690624Q216.25313 36.175 218.34688 36.175Q220.4875 36.175 221.8625 34.675Q223.25313 33.159374 223.25313 30.39375Q223.25313 28.659374 222.65938 27.3625Q222.08125 26.05 220.94063 25.33125Q219.8 24.6125 218.37813 24.6125Q216.37813 24.6125 214.925 26.003124Q213.47188 27.378124 213.47188 30.6125ZM226.94063 37.55L226.94063 36.128124L233.55 28.55Q232.425 28.596874 231.56563 28.596874L227.33125 28.596874L227.33125 27.175L235.81563 27.175L235.81563 28.346874L230.19063 34.925L229.1125 36.128124Q230.28438 36.034374 231.33125 36.034374L236.12813 36.034374L236.12813 37.55L226.94063 37.55ZM236.22188 32.3625Q236.22188 29.4875 237.81563 28.096874Q239.15938 26.940624 241.08125 26.940624Q243.22188 26.940624 244.56563 28.346874Q245.925 29.753124 245.925 32.221874Q245.925 34.221874 245.33125 35.378124Q244.7375 36.51875 243.58125 37.159374Q242.44063 37.784374 241.08125 37.784374Q238.89375 37.784374 237.55 36.39375Q236.22188 34.9875 236.22188 32.3625ZM238.01875 32.3625Q238.01875 34.3625 238.87813 35.346874Q239.75313 36.33125 241.08125 36.33125Q242.39375 36.33125 243.25313 35.346874Q244.12813 34.346874 244.12813 32.3Q244.12813 30.378124 243.25313 29.39375Q242.37813 28.39375 241.08125 28.39375Q239.75313 28.39375 238.87813 29.39375Q238.01875 30.378124 238.01875 32.3625ZM247.8625 37.55L247.8625 27.175L249.45625 27.175L249.45625 28.659374Q250.59688 26.940624 252.75313 26.940624Q253.69063 26.940624 254.47188 27.284374Q255.26875 27.6125 255.65938 28.159374Q256.05 28.70625 256.20624 29.45625Q256.3 29.95625 256.3 31.175L256.3 37.55L254.53438 37.55L254.53438 31.2375Q254.53438 30.159374 254.33125 29.628124Q254.12813 29.096874 253.59688 28.784374Q253.08125 28.471874 252.37813 28.471874Q251.25313 28.471874 250.44063 29.190624Q249.62813 29.89375 249.62813 31.878124L249.62813 37.55L247.8625 37.55Z" fill-rule="nonzero"/></svg>